<svg width="40" height="40" viewBox="0 0 40 40" fill="none" xmlns="http://www.w3.org/2000/svg">
<path fill-rule="evenodd" clip-rule="evenodd" d="M7.99973 17.0002C9.65648 17.0002 10.9995 15.6572 10.9995 14.0005C10.9995 12.343 12.3431 11 13.9999 11C15.6566 11 16.9996 12.343 16.9996 14.0005C16.9996 15.6572 15.6566 17.0002 13.9999 17.0002C12.3431 17.0002 10.9995 18.3432 10.9995 20C10.9995 21.6574 12.3431 23.0005 13.9999 23.0005C15.6566 23.0005 16.9996 21.6574 16.9996 20C16.9996 18.3432 18.3426 17.0002 19.9993 17.0002C21.6567 17.0002 22.9997 15.6572 22.9997 14.0005C22.9997 12.343 24.3427 11 25.9995 11C27.6562 11 28.9999 12.343 28.9999 14.0005C28.9999 15.6572 30.3428 17.0002 31.9996 17.0002C33.6563 17.0002 35 18.3432 35 20C35 21.6574 33.6563 23.0005 31.9996 23.0005C30.3428 23.0005 28.9999 24.3435 28.9999 26.0002C28.9999 27.657 27.6562 29 25.9995 29C24.3427 29 22.9997 27.657 22.9997 26.0002C22.9997 24.3435 24.3427 23.0005 25.9995 23.0005C27.6562 23.0005 28.9999 21.6574 28.9999 20C28.9999 18.3432 27.6562 17.0002 25.9995 17.0002C24.3427 17.0002 22.9997 18.3432 22.9997 20C22.9997 21.6574 21.6567 23.0005 19.9993 23.0005C18.3426 23.0005 16.9996 24.3435 16.9996 26.0002C16.9996 27.657 15.6566 29 13.9999 29C12.3431 29 10.9995 27.657 10.9995 26.0002C10.9995 24.3435 9.65648 23.0005 7.99973 23.0005C6.34298 23.0005 5 21.6574 5 20C5 18.3432 6.34298 17.0002 7.99973 17.0002Z" fill="white"/>
</svg>
