<svg width="200" height="40" viewBox="0 0 200 40" fill="none" xmlns="http://www.w3.org/2000/svg">
<path fill-rule="evenodd" clip-rule="evenodd" d="M7.99973 17.0002C9.65648 17.0002 10.9995 15.6572 10.9995 14.0005C10.9995 12.343 12.3431 11 13.9999 11C15.6566 11 16.9996 12.343 16.9996 14.0005C16.9996 15.6572 15.6566 17.0002 13.9999 17.0002C12.3431 17.0002 10.9995 18.3432 10.9995 20C10.9995 21.6574 12.3431 23.0005 13.9999 23.0005C15.6566 23.0005 16.9996 21.6574 16.9996 20C16.9996 18.3432 18.3426 17.0002 19.9993 17.0002C21.6567 17.0002 22.9997 15.6572 22.9997 14.0005C22.9997 12.343 24.3427 11 25.9995 11C27.6562 11 28.9999 12.343 28.9999 14.0005C28.9999 15.6572 30.3428 17.0002 31.9996 17.0002C33.6563 17.0002 35 18.3432 35 20C35 21.6574 33.6563 23.0005 31.9996 23.0005C30.3428 23.0005 28.9999 24.3435 28.9999 26.0002C28.9999 27.657 27.6562 29 25.9995 29C24.3427 29 22.9997 27.657 22.9997 26.0002C22.9997 24.3435 24.3427 23.0005 25.9995 23.0005C27.6562 23.0005 28.9999 21.6574 28.9999 20C28.9999 18.3432 27.6562 17.0002 25.9995 17.0002C24.3427 17.0002 22.9997 18.3432 22.9997 20C22.9997 21.6574 21.6567 23.0005 19.9993 23.0005C18.3426 23.0005 16.9996 24.3435 16.9996 26.0002C16.9996 27.657 15.6566 29 13.9999 29C12.3431 29 10.9995 27.657 10.9995 26.0002C10.9995 24.3435 9.65648 23.0005 7.99973 23.0005C6.34298 23.0005 5 21.6574 5 20C5 18.3432 6.34298 17.0002 7.99973 17.0002Z" fill="white"/>
<path d="M44.48 15.68C45.2667 15.68 45.9533 15.84 46.54 16.16C47.14 16.48 47.6 16.9 47.92 17.42V15.84H51.34V26.98C51.34 28.0067 51.1333 28.9333 50.72 29.76C50.32 30.6 49.7 31.2667 48.86 31.76C48.0333 32.2533 47 32.5 45.76 32.5C44.1067 32.5 42.7667 32.1067 41.74 31.32C40.7133 30.5467 40.1267 29.4933 39.98 28.16H43.36C43.4667 28.5867 43.72 28.92 44.12 29.16C44.52 29.4133 45.0133 29.54 45.6 29.54C46.3067 29.54 46.8667 29.3333 47.28 28.92C47.7067 28.52 47.92 27.8733 47.92 26.98V25.4C47.5867 25.92 47.1267 26.3467 46.54 26.68C45.9533 27 45.2667 27.16 44.48 27.16C43.56 27.16 42.7267 26.9267 41.98 26.46C41.2333 25.98 40.64 25.3067 40.2 24.44C39.7733 23.56 39.56 22.5467 39.56 21.4C39.56 20.2533 39.7733 19.2467 40.2 18.38C40.64 17.5133 41.2333 16.8467 41.98 16.38C42.7267 15.9133 43.56 15.68 44.48 15.68ZM47.92 21.42C47.92 20.5667 47.68 19.8933 47.2 19.4C46.7333 18.9067 46.16 18.66 45.48 18.66C44.8 18.66 44.22 18.9067 43.74 19.4C43.2733 19.88 43.04 20.5467 43.04 21.4C43.04 22.2533 43.2733 22.9333 43.74 23.44C44.22 23.9333 44.8 24.18 45.48 24.18C46.16 24.18 46.7333 23.9333 47.2 23.44C47.68 22.9467 47.92 22.2733 47.92 21.42ZM57.2342 17.7C57.6342 17.0867 58.1342 16.6067 58.7342 16.26C59.3342 15.9 60.0009 15.72 60.7342 15.72V19.34H59.7942C58.9409 19.34 58.3009 19.5267 57.8742 19.9C57.4476 20.26 57.2342 20.9 57.2342 21.82V27H53.8142V15.84H57.2342V17.7ZM61.6889 21.4C61.6889 20.2533 61.9022 19.2467 62.3289 18.38C62.7689 17.5133 63.3622 16.8467 64.1089 16.38C64.8556 15.9133 65.6889 15.68 66.6089 15.68C67.3956 15.68 68.0822 15.84 68.6689 16.16C69.2689 16.48 69.7289 16.9 70.0489 17.42V15.84H73.4689V27H70.0489V25.42C69.7156 25.94 69.2489 26.36 68.6489 26.68C68.0622 27 67.3756 27.16 66.5889 27.16C65.6822 27.16 64.8556 26.9267 64.1089 26.46C63.3622 25.98 62.7689 25.3067 62.3289 24.44C61.9022 23.56 61.6889 22.5467 61.6889 21.4ZM70.0489 21.42C70.0489 20.5667 69.8089 19.8933 69.3289 19.4C68.8622 18.9067 68.2889 18.66 67.6089 18.66C66.9289 18.66 66.3489 18.9067 65.8689 19.4C65.4022 19.88 65.1689 20.5467 65.1689 21.4C65.1689 22.2533 65.4022 22.9333 65.8689 23.44C66.3489 23.9333 66.9289 24.18 67.6089 24.18C68.2889 24.18 68.8622 23.9333 69.3289 23.44C69.8089 22.9467 70.0489 22.2733 70.0489 21.42ZM75.2631 21.4C75.2631 20.2533 75.4765 19.2467 75.9031 18.38C76.3431 17.5133 76.9365 16.8467 77.6831 16.38C78.4298 15.9133 79.2631 15.68 80.1831 15.68C80.9165 15.68 81.5831 15.8333 82.1831 16.14C82.7965 16.4467 83.2765 16.86 83.6231 17.38V12.2H87.0431V27H83.6231V25.4C83.3031 25.9333 82.8431 26.36 82.2431 26.68C81.6565 27 80.9698 27.16 80.1831 27.16C79.2631 27.16 78.4298 26.9267 77.6831 26.46C76.9365 25.98 76.3431 25.3067 75.9031 24.44C75.4765 23.56 75.2631 22.5467 75.2631 21.4ZM83.6231 21.42C83.6231 20.5667 83.3831 19.8933 82.9031 19.4C82.4365 18.9067 81.8631 18.66 81.1831 18.66C80.5031 18.66 79.9231 18.9067 79.4431 19.4C78.9765 19.88 78.7431 20.5467 78.7431 21.4C78.7431 22.2533 78.9765 22.9333 79.4431 23.44C79.9231 23.9333 80.5031 24.18 81.1831 24.18C81.8631 24.18 82.4365 23.9333 82.9031 23.44C83.3831 22.9467 83.6231 22.2733 83.6231 21.42ZM91.2373 14.68C90.6373 14.68 90.144 14.5067 89.7573 14.16C89.384 13.8 89.1973 13.36 89.1973 12.84C89.1973 12.3067 89.384 11.8667 89.7573 11.52C90.144 11.16 90.6373 10.98 91.2373 10.98C91.824 10.98 92.304 11.16 92.6773 11.52C93.064 11.8667 93.2573 12.3067 93.2573 12.84C93.2573 13.36 93.064 13.8 92.6773 14.16C92.304 14.5067 91.824 14.68 91.2373 14.68ZM92.9373 15.84V27H89.5173V15.84H92.9373ZM105.936 21.24C105.936 21.56 105.916 21.8933 105.876 22.24H98.1358C98.1891 22.9333 98.4091 23.4667 98.7958 23.84C99.1958 24.2 99.6824 24.38 100.256 24.38C101.109 24.38 101.702 24.02 102.036 23.3H105.676C105.489 24.0333 105.149 24.6933 104.656 25.28C104.176 25.8667 103.569 26.3267 102.836 26.66C102.102 26.9933 101.282 27.16 100.376 27.16C99.2824 27.16 98.3091 26.9267 97.4558 26.46C96.6024 25.9933 95.9358 25.3267 95.4558 24.46C94.9758 23.5933 94.7358 22.58 94.7358 21.42C94.7358 20.26 94.9691 19.2467 95.4358 18.38C95.9158 17.5133 96.5824 16.8467 97.4358 16.38C98.2891 15.9133 99.2691 15.68 100.376 15.68C101.456 15.68 102.416 15.9067 103.256 16.36C104.096 16.8133 104.749 17.46 105.216 18.3C105.696 19.14 105.936 20.12 105.936 21.24ZM102.436 20.34C102.436 19.7533 102.236 19.2867 101.836 18.94C101.436 18.5933 100.936 18.42 100.336 18.42C99.7624 18.42 99.2758 18.5867 98.8758 18.92C98.4891 19.2533 98.2491 19.7267 98.1558 20.34H102.436ZM114.54 15.72C115.847 15.72 116.887 16.1467 117.66 17C118.447 17.84 118.84 19 118.84 20.48V27H115.44V20.94C115.44 20.1933 115.247 19.6133 114.86 19.2C114.473 18.7867 113.953 18.58 113.3 18.58C112.647 18.58 112.127 18.7867 111.74 19.2C111.353 19.6133 111.16 20.1933 111.16 20.94V27H107.74V15.84H111.16V17.32C111.507 16.8267 111.973 16.44 112.56 16.16C113.147 15.8667 113.807 15.72 114.54 15.72ZM127.437 24.1V27H125.697C124.457 27 123.49 26.7 122.797 26.1C122.103 25.4867 121.757 24.4933 121.757 23.12V18.68H120.397V15.84H121.757V13.12H125.177V15.84H127.417V18.68H125.177V23.16C125.177 23.4933 125.257 23.7333 125.417 23.88C125.577 24.0267 125.843 24.1 126.217 24.1H127.437Z" fill="white"/>
</svg>
